<?xml version="1.0" encoding="utf-8"?>
<!-- Generator: Adobe Illustrator 22.1.0, SVG Export Plug-In . SVG Version: 6.00 Build 0)  -->
<svg version="1.1" id="Layer_1" xmlns="http://www.w3.org/2000/svg" xmlns:xlink="http://www.w3.org/1999/xlink" x="0px" y="0px"
	 viewBox="0 0 36 36" style="enable-background:new 0 0 36 36;" xml:space="preserve">
<style type="text/css">
	.st0{fill:#636C7A;}
</style>
<g>
	<path class="st0" d="M26,0H10C4.5,0,0,4.5,0,10v16c0,5.5,4.5,10,10,10h16c5.5,0,10-4.5,10-10V10C36,4.5,31.5,0,26,0z M27.2,27.8
		l-9.1,3l-9.1-3L7,5h22.2L27.2,27.8z"/>
	<polygon class="st0" points="18.5,12.3 18.1,12.5 11.7,15.2 11.9,17.9 11.9,17.9 11.9,17.9 21.5,17.9 21.3,21.5 18.1,22.3 
		15.1,21.6 14.9,19.4 12.1,19.4 12.5,23.6 18.2,25.3 23.8,23.7 24.6,15.2 18.1,15.2 18.1,15.2 24.8,12.3 25.1,9.6 11.1,9.6 
		11.4,12.3 	"/>
</g>
</svg>
