<?xml version="1.0" encoding="utf-8"?>
<!-- Generator: Adobe Illustrator 22.1.0, SVG Export Plug-In . SVG Version: 6.00 Build 0)  -->
<svg version="1.1" id="Layer_1" xmlns="http://www.w3.org/2000/svg" xmlns:xlink="http://www.w3.org/1999/xlink" x="0px" y="0px"
	 viewBox="0 0 36 36" style="enable-background:new 0 0 36 36;" xml:space="preserve">
<style type="text/css">
	.st0{fill:#636C7A;}
</style>
<g>
	<path class="st0" d="M26,0H10C4.5,0,0,4.5,0,10v16c0,5.5,4.5,10,10,10h16c5.5,0,10-4.5,10-10V10C36,4.5,31.5,0,26,0z M28.4,16.9
		c0,0.9-0.2,1.8-0.4,2.6c-0.2,0.8-0.6,1.6-1,2.3c-0.5,0.7-1,1.2-1.7,1.7c-0.8,0.4-1.7,0.7-2.5,0.6c-0.6,0-1.3-0.1-1.8-0.5
		c-0.5-0.3-1-0.7-1.2-1.3c-0.8,1.1-2,1.7-3.3,1.7c-1.2,0-2.3-0.6-2.9-1.6c-0.4-0.6-0.6-1.2-0.7-1.8c-0.2-0.8-0.2-1.6-0.1-2.4
		c0.1-1,0.3-2,0.7-2.9c0.3-0.8,0.8-1.6,1.3-2.2c0.5-0.6,1.1-1.1,1.8-1.4c0.7-0.3,1.5-0.5,2.2-0.5c0.4,0,0.9,0,1.3,0.1
		c0.4,0.1,0.7,0.2,1,0.3c0.3,0.1,0.6,0.3,0.9,0.5c0.3,0.2,0.5,0.3,0.8,0.5L22,20.2c0,0.3,0,0.6,0,0.9c0,0.2,0.1,0.4,0.3,0.5
		c0.1,0.1,0.3,0.2,0.4,0.3c0.5,0.2,1.1,0.1,1.5-0.3c0.3-0.3,0.6-0.6,0.8-1c0.2-0.5,0.4-1,0.5-1.6c0.1-0.6,0.2-1.3,0.2-1.9
		c0.1-1.2,0-2.4-0.3-3.6c-0.2-1-0.7-2-1.3-2.8c-0.6-0.8-1.5-1.4-2.4-1.8c-1.1-0.5-2.3-0.7-3.5-0.6c-1.2,0-2.4,0.2-3.5,0.8
		c-1,0.5-1.9,1.2-2.6,2.1c-0.8,0.9-1.3,2-1.7,3.1c-0.4,1.3-0.7,2.6-0.7,3.9c-0.1,1.3,0,2.7,0.4,4c0.3,1.1,0.8,2,1.5,2.9
		c0.7,0.8,1.5,1.4,2.5,1.7c1.1,0.4,2.3,0.6,3.4,0.6c0.8,0,1.5-0.1,2.2-0.2c0.4-0.1,0.7-0.2,1.1-0.3c0.3-0.1,0.6-0.2,0.9-0.3l0.5,2.1
		c-0.3,0.2-0.7,0.4-1,0.5c-0.4,0.1-0.8,0.3-1.2,0.3c-0.8,0.2-1.7,0.3-2.5,0.3c-1.6,0-3.1-0.2-4.6-0.7c-1.3-0.5-2.4-1.2-3.3-2.2
		c-0.9-1-1.6-2.3-2-3.6c-0.5-1.6-0.6-3.3-0.6-5c0.1-1.6,0.4-3.3,1-4.8c0.5-1.4,1.3-2.7,2.3-3.8c1-1.1,2.2-1.9,3.5-2.5
		c1.4-0.6,3-0.9,4.6-0.9c1.5,0,3,0.2,4.4,0.8C24,7.3,25.1,8,26,9c0.9,1,1.5,2.2,1.9,3.4C28.3,13.9,28.5,15.4,28.4,16.9z"/>
	<path class="st0" d="M17.6,14.1c-0.4,0.2-0.7,0.5-0.9,0.9c-0.3,0.4-0.5,0.9-0.6,1.4c-0.2,0.6-0.3,1.3-0.3,2l0,0
		c-0.1,0.8,0,1.7,0.3,2.5c0.2,0.5,0.7,0.9,1.3,0.8c0.2,0,0.3,0,0.4-0.1c0.2-0.1,0.4-0.2,0.5-0.3c0.2-0.2,0.4-0.4,0.5-0.6
		c0.2-0.3,0.4-0.7,0.5-1l0.5-5.8c-0.3-0.1-0.5-0.1-0.8-0.1C18.5,13.7,18,13.8,17.6,14.1z"/>
</g>
</svg>
