<?xml version="1.0" encoding="utf-8"?>
<!-- Generator: Adobe Illustrator 22.1.0, SVG Export Plug-In . SVG Version: 6.00 Build 0)  -->
<svg version="1.1" id="Layer_1" xmlns="http://www.w3.org/2000/svg" xmlns:xlink="http://www.w3.org/1999/xlink" x="0px" y="0px"
	 viewBox="0 0 36 36" style="enable-background:new 0 0 36 36;" xml:space="preserve">
<style type="text/css">
	.st0{fill:#636C7A;}
</style>
<path class="st0" d="M26,0H10C4.5,0,0,4.5,0,10v16c0,5.5,4.5,10,10,10h16c5.5,0,10-4.5,10-10V10C36,4.5,31.5,0,26,0z M27.1,27.9
	c0,0.4-0.3,0.7-0.7,0.7l-5.2,0c0,0,0,0,0,0c-0.4,0-0.7-0.3-0.7-0.7v-4.4c0-0.4-0.3-0.7-0.7-0.7h-2.9c-0.4,0-0.7,0.3-0.7,0.7v4.4
	c0,0.4-0.3,0.7-0.7,0.7l-5.2,0c-0.4,0-0.7-0.3-0.7-0.7v-7.5l8.5-7c0.2-0.2,0.5-0.2,0.7,0l8.5,7V27.9z M31.4,18.9l-1.2,1.4
	c-0.2,0.2-0.5,0.3-0.8,0.1l-10.8-8.9c-0.2-0.2-0.5-0.2-0.7,0L7.1,20.4c0,0,0,0,0,0c-0.2,0.2-0.6,0.2-0.8-0.1l-1.2-1.4
	c-0.2-0.2-0.2-0.6,0.1-0.8l11.6-9.6c0.8-0.7,2-0.7,2.8,0l4.1,3.4V8.6C23.8,8.2,24,8,24.3,8h2.6c0.3,0,0.6,0.2,0.6,0.6v6.4l3.8,3.2
	l0,0c0,0,0,0,0,0C31.5,18.3,31.6,18.6,31.4,18.9z"/>
</svg>
