<?xml version="1.0" encoding="utf-8"?>
<!-- Generator: Adobe Illustrator 22.1.0, SVG Export Plug-In . SVG Version: 6.00 Build 0)  -->
<svg version="1.1" id="Layer_1" xmlns="http://www.w3.org/2000/svg" xmlns:xlink="http://www.w3.org/1999/xlink" x="0px" y="0px"
	 viewBox="0 0 36 36" style="enable-background:new 0 0 36 36;" xml:space="preserve">
<style type="text/css">
	.st0{fill:#636C7A;}
</style>
<g>
	<polygon class="st0" points="21.4,18.1 21.1,21.7 18,22.5 14.9,21.7 14.7,19.5 11.9,19.5 12.3,23.9 18,25.4 18,25.4 18,25.4 
		23.7,23.9 24.5,15.3 14.3,15.3 14.1,12.5 24.7,12.5 25,9.7 11,9.7 11.8,18.1 	"/>
	<path class="st0" d="M26,0H10C4.5,0,0,4.5,0,10v16c0,5.5,4.5,10,10,10h16c5.5,0,10-4.5,10-10V10C36,4.5,31.5,0,26,0z M27.1,27.9
		l-9.1,3l-9-3l-2-22.9h22.2L27.1,27.9z"/>
</g>
</svg>
