<?xml version="1.0" encoding="utf-8"?>
<!-- Generator: Adobe Illustrator 22.1.0, SVG Export Plug-In . SVG Version: 6.00 Build 0)  -->
<svg version="1.1" id="Layer_1" xmlns="http://www.w3.org/2000/svg" xmlns:xlink="http://www.w3.org/1999/xlink" x="0px" y="0px"
	 viewBox="0 0 36 36" style="enable-background:new 0 0 36 36;" xml:space="preserve">
<style type="text/css">
	.st0{fill:#636C7A;}
</style>
<path class="st0" d="M26,0H10C4.5,0,0,4.5,0,10v16c0,5.5,4.5,10,10,10h16c5.5,0,10-4.5,10-10V10C36,4.5,31.5,0,26,0z M15.3,20.7
	c0,5.1-2.6,6.9-6.4,6.9c-1,0-2-0.1-2.9-0.4l0.4-3.3c0.7,0.2,1.3,0.3,2,0.3c1.7,0,2.6-0.8,2.6-3.6V9.4h4.2V20.7z M22.7,27.6
	c-1.7,0-3.3-0.4-4.8-1.1l0.8-3.3c1.3,0.7,2.8,1.1,4.3,1.1c1.8,0,2.8-0.8,2.8-2c0-1.1-0.8-1.8-2.9-2.5c-2.9-1.1-4.9-2.7-4.9-5.4
	c0-3.1,2.6-5.4,6.7-5.4c1.5,0,3.1,0.3,4.5,0.8l-1,3.4c-1.1-0.6-2.3-0.9-3.5-0.9c-1.7,0-2.5,0.8-2.5,1.7c0,1.2,1,1.7,3.2,2.6
	c3.1,1.2,4.5,2.8,4.5,5.4C29.7,25,27.5,27.6,22.7,27.6z"/>
</svg>
