<?xml version="1.0" encoding="utf-8"?>
<!-- Generator: Adobe Illustrator 22.1.0, SVG Export Plug-In . SVG Version: 6.00 Build 0)  -->
<svg version="1.1" xmlns="http://www.w3.org/2000/svg" xmlns:xlink="http://www.w3.org/1999/xlink" x="0px" y="0px"
	 viewBox="0 0 36 36" style="enable-background:new 0 0 36 36;" xml:space="preserve">
<style type="text/css">
	.st0{display:none;}
	.st1{fill:#636C7A;}
</style>
<g id="Layer_1" class="st0">
</g>
<g id="Layer_2">
	<path class="st1" d="M26,0H10C4.5,0,0,4.5,0,10v16c0,5.5,4.5,10,10,10h16c5.5,0,10-4.5,10-10V10C36,4.5,31.5,0,26,0z M13.2,27.6
		H9.3V15.2h3.9V27.6z M11.2,13.5c-1.2,0-2.3-1-2.3-2.2C9,10,10,9,11.2,9c1.2,0,2.3,1,2.3,2.2C13.5,12.5,12.5,13.5,11.2,13.5z
		 M27.6,27.6L27.6,27.6l-3.9,0v-6.1c0-1.4,0-3.3-2-3.3c-2,0-2.3,1.6-2.3,3.2v6.2h-3.9V15.2h3.7v1.7h0.1c0.8-1.3,2.2-2.1,3.7-2
		c3.9,0,4.6,2.6,4.6,5.9V27.6z"/>
</g>
</svg>
