<svg xmlns="http://www.w3.org/2000/svg" width="591.667" height="523.187" viewBox="0 0 591.667 523.187">
  <g id="Group_1" data-name="Group 1" transform="translate(0 0)">
    <path id="Path_6" data-name="Path 6" d="M758.941,691.506l-.788-.3c-.173-.065-17.4-6.667-25.475-21.636s-4.12-32.993-4.079-33.173l.186-.821.788.3c.173.065,17.4,6.667,25.476,21.636s4.12,32.993,4.079,33.173ZM733.97,668.878c6.824,12.656,20.441,19.144,23.891,20.625.656-3.7,2.713-18.65-4.105-31.294s-20.439-19.141-23.891-20.625C729.209,641.283,727.153,656.234,733.97,668.878Z" transform="translate(-193.484 -169.015)" fill="#393e46"/>
    <path id="Path_7" data-name="Path 7" d="M731.171,672.523c14.506,8.727,20.092,26.062,20.092,26.062s-17.932,3.185-32.438-5.542-20.092-26.062-20.092-26.062S716.665,663.8,731.171,672.523Z" transform="translate(-185.808 -177.214)" fill="#00adb5"/>
    <path id="Path_8" data-name="Path 8" d="M424.261,367.116A9.191,9.191,0,0,1,437.811,365a8.739,8.739,0,0,1,.888.848l36.125-5.259,2.01-27.165a7.879,7.879,0,1,1,15.716,1.161q-.005.072-.012.145l-3.521,38.117-.017.085a7.138,7.138,0,0,1-6.9,5.007l-42.49-.734a8.6,8.6,0,0,1-.533.728,9.191,9.191,0,0,1-13.7.561q-.274-.281-.52-.581a9.22,9.22,0,0,1-.6-10.8Z" transform="translate(-112.43 -86.725)" fill="#ffb7b7"/>
    <path id="Path_9" data-name="Path 9" d="M518.5,683.083h-10.3l-4.9-39.741H518.5Z" transform="translate(-133.837 -171.078)" fill="#ffb7b7"/>
    <path id="Path_10" data-name="Path 10" d="M515.55,706.247H482.329v-.42a12.931,12.931,0,0,1,12.93-12.931h20.292Z" transform="translate(-128.262 -184.256)" fill="#393e46"/>
    <path id="Path_11" data-name="Path 11" d="M612.221,671.128l-9.751,3.325L585,638.424l14.393-4.909Z" transform="translate(-155.564 -168.465)" fill="#ffb7b7"/>
    <path id="Path_12" data-name="Path 12" d="M618.17,691.9l-31.443,10.724-.136-.4a12.932,12.932,0,0,1,8.064-16.413h0l19.2-6.55Z" transform="translate(-155.802 -180.63)" fill="#393e46"/>
    <path id="Path_13" data-name="Path 13" d="M527.255,223.281s-10.255-3.387-16.848,10.16S493.56,261.89,493.56,261.89l5.86,1.355s1.465-9.483,5.128-10.838L503.083,264.6s43.95,14.224,63.727-1.355l-.732-4.741s2.93.677,2.93,4.741l2.2-2.032s-2.2-4.064-8.79-9.483c-4.327-3.557-5.814-10.323-6.325-14.554a16.957,16.957,0,0,0-4.385-9.591C547.325,222.89,539.342,217.9,527.255,223.281Z" transform="translate(-131.248 -58.755)" fill="#393e46"/>
    <circle id="Ellipse_1" data-name="Ellipse 1" cx="18.73" cy="18.73" r="18.73" transform="translate(381.057 174.397)" fill="#ffb7b7"/>
    <path id="Path_14" data-name="Path 14" d="M506.478,309.2l-3.405-1.135s-6.811,2.838-6.811,7.946-1.135,25.541-1.135,25.541l15.325,1.7Z" transform="translate(-131.665 -81.922)" fill="#f8b500"/>
    <path id="Path_15" data-name="Path 15" d="M590.082,425.789a8.856,8.856,0,0,1-.2-11.557l-9.56-80.063a7.137,7.137,0,1,1,14.254-.735c0,.026,0,.052,0,.078l8.552,80.149a8.6,8.6,0,0,1,.855,1,8.914,8.914,0,0,1-2,12.447q-.147.107-.3.207h0a8.923,8.923,0,0,1-7.539,1.09,8.814,8.814,0,0,1-4.065-2.618Z" transform="translate(-154.317 -86.867)" fill="#ffb7b7"/>
    <path id="Path_16" data-name="Path 16" d="M581.7,340.937l15.325-1.7s-1.135-20.433-1.135-25.541-6.811-7.946-6.811-7.946l-3.406,1.135Z" transform="translate(-154.685 -81.305)" fill="#f8b500"/>
    <path id="Path_17" data-name="Path 17" d="M508.543,392.3s-13.054,23.867-13.054,52.814-1.135,161.761-1.135,161.761,17.027,7.946,27.244-1.7l9.081-147,35.758,144.166s17.027,3.406,24.974-2.27L576.085,499.6s-6.243-94.218-23.271-101.029S508.543,392.3,508.543,392.3Z" transform="translate(-131.459 -104.319)" fill="#393e46"/>
    <path id="Path_18" data-name="Path 18" d="M516.794,255.168c6.631-4.8,12-10.326,15.548-16.9,0,0,12.168,13.52,19.6,14.2s.676-16.224.676-16.224l-13.521-3.38-12.844,1.352-10.14,6.76Z" transform="translate(-137.247 -61.922)" fill="#393e46"/>
    <path id="Path_19" data-name="Path 19" d="M553.061,301.1s.541-.29-31.783.887l-13.528,3.726-1.8.5s1.7,34.055,6.243,40.3,3.405,9.649,2.27,10.216-3.973-.568-2.27,2.27,3.973,1.135,1.7,2.838-3.406,7.946-3.406,7.946l49.947,6.811s1.7-22.136,6.243-33.487,5.676-15.892,5.676-15.892l-3.406-22.7Z" transform="translate(-134.543 -80.06)" fill="#f8b500"/>
    <path id="Path_20" data-name="Path 20" d="M346.345,124.224h-2.872V45.54A45.54,45.54,0,0,0,297.932,0h-166.7a45.54,45.54,0,0,0-45.54,45.54V477.2a45.54,45.54,0,0,0,45.54,45.54h166.7a45.54,45.54,0,0,0,45.54-45.54h0V180.232h2.872Z" transform="translate(-22.787 0)" fill="#393e46"/>
    <path id="Path_21" data-name="Path 21" d="M338.333,50.152V481.181a33.979,33.979,0,0,1-33.949,34.01H136.821a33.986,33.986,0,0,1-34.01-33.962V50.152a33.986,33.986,0,0,1,33.962-34.01H157.14A16.156,16.156,0,0,0,172.1,38.4h95.5a16.156,16.156,0,0,0,14.961-22.257h21.758a33.979,33.979,0,0,1,34.01,33.949v.061Z" transform="translate(-27.34 -4.293)" fill="#fff"/>
    <path id="Path_22" data-name="Path 22" d="M338.333,113.922V99.241H316.112v-81a33.9,33.9,0,0,0-11.789-2.1h-2.892v83.1H224.352V38.4H209.671v60.84h-64.6v-83.1h-8.251a33.686,33.686,0,0,0-6.431.609V99.241H102.811v14.682H130.39v33.959L102.811,163.8V180.76l27.579-15.922V265.876H102.811v14.682H130.39V426.639H102.811v14.682H130.39v73.261a33.7,33.7,0,0,0,6.431.609h8.251v-73.87h64.6v73.87h14.682v-73.87H301.43v73.87h2.892a33.9,33.9,0,0,0,11.789-2.1V441.321h22.221V426.64H316.112V362.775h22.022V348.093H316.112V280.558h22.221V265.876H316.112V176.319h22.221V161.637H316.112V113.922Zm-149.12,0h0l-44.14,25.487h0V113.922ZM145.072,156.36h0l64.6-37.3V265.876h-64.6Zm0,270.28V280.558h64.6V426.639Zm156.359,0H224.352V362.774h77.078Zm0-78.546H224.352V280.558h77.078Zm0-82.217H224.352V176.319h77.078Zm0-104.239H224.352V113.922h77.078Z" transform="translate(-27.34 -4.293)" fill="#e5e5e5"/>
    <path id="Path_23" data-name="Path 23" d="M379.219,184.132c0,46.623-84.419,150.486-84.419,150.486s-84.419-103.863-84.419-150.486a84.419,84.419,0,1,1,168.838,0Z" transform="translate(-55.945 -26.516)" fill="#00adb5"/>
    <path id="Path_24" data-name="Path 24" d="M357.217,191.63A49.917,49.917,0,1,1,307.3,141.713h0a49.894,49.894,0,0,1,49.917,49.872Z" transform="translate(-68.443 -37.685)" fill="#fff"/>
    <circle id="Ellipse_2" data-name="Ellipse 2" cx="18.597" cy="18.597" r="18.597" transform="translate(220.086 136.457)" fill="#00adb5"/>
    <path id="Path_25" data-name="Path 25" d="M342.481,261.755a49.971,49.971,0,0,1-53.639-.007,27.894,27.894,0,0,1,53.638,0Z" transform="translate(-76.809 -64.227)" fill="#00adb5"/>
    <circle id="Ellipse_3" data-name="Ellipse 3" cx="22.756" cy="22.756" r="22.756" transform="translate(216.099 323.518)" fill="#00adb5"/>
    <path id="Path_26" data-name="Path 26" d="M590.933,712.181H.734a.734.734,0,1,1,0-1.468h590.2a.734.734,0,1,1,0,1.468Z" transform="translate(0 -188.994)" fill="#cbcbcb"/>
  </g>
</svg>
